<svg xmlns="http://www.w3.org/2000/svg" viewBox="0 0 500 500">
  <defs>
    <style>
      .cls-1 {
        fill: #f7f8f8;
      }

      .cls-2 {
        fill: #adadad;
      }

      .cls-3 {
        fill: #ccc;
      }

      .cls-4 {
        fill: #d6d6d6;
      }

      .cls-5 {
        fill: #898585;
      }

      .cls-6 {
        fill: #f4eded;
      }

      .cls-7 {
        fill: #7c7c7c;
      }

      .cls-8 {
        fill: #b7b2b2;
      }

      .cls-9 {
        fill: #707070;
      }

      .cls-10 {
        fill: #d7d7d7;
      }

      .cls-11 {
        fill: #f3f2f2;
      }

      .cls-12 {
        fill: #aeaeae;
      }

      .cls-13 {
        fill: #c9c9c9;
      }

      .cls-14 {
        fill: #606060;
      }

      .cls-15 {
        fill: #c6c6c6;
      }

      .cls-16 {
        fill: #666;
      }

      .cls-17 {
        fill: #8a8a8a;
      }

      .cls-18 {
        fill: #fcfcfc;
      }

      .cls-19 {
        fill: #e2e3e3;
      }
    </style>
  </defs>
  <title>momtweet</title>
  <g id="레이어_1" data-name="레이어 1">
    <g>
      <rect class="cls-1" x="198.85" y="198.11" width="78.43" height="53.02"/>
      <rect class="cls-1" x="179.35" y="315.75" width="147.05" height="58.83"/>
      <rect class="cls-1" x="189.15" y="325.56" width="29.41" height="38.27"/>
      <rect class="cls-1" x="228.36" y="305.95" width="19.61" height="9.8"/>
      <rect class="cls-1" x="218.55" y="256.93" width="19.61" height="9.8"/>
      <rect class="cls-1" x="213.65" y="271.64" width="19.61" height="9.8" transform="translate(-53.08 500) rotate(-90)"/>
      <rect class="cls-1" x="213.65" y="321.66" width="19.61" height="9.8" transform="translate(-103.1 550.02) rotate(-90)"/>
      <rect class="cls-1" x="272.47" y="350.07" width="19.61" height="9.8" transform="translate(-72.69 637.25) rotate(-90)"/>
      <rect class="cls-1" x="262.67" y="261.84" width="19.61" height="9.8" transform="translate(5.74 539.22) rotate(-90)"/>
      <rect class="cls-1" x="196.55" y="286.43" width="122.44" height="48.85" rx="2.52"/>
      <rect class="cls-1" x="206.35" y="252.62" width="80.83" height="48.85" rx="2.04"/>
      <rect class="cls-1" x="257.69" y="374.58" width="19.69" height="9.81" rx="0.45"/>
      <rect class="cls-1" x="275.55" y="198.11" width="33.72" height="9.81" rx="0.59"/>
      <rect class="cls-1" x="304.97" y="168.7" width="41.04" height="9.81" rx="0.65"/>
      <rect class="cls-2" x="228.36" y="188.3" width="9.8" height="9.81"/>
      <rect class="cls-2" x="247.97" y="271.64" width="9.8" height="9.81"/>
      <rect class="cls-2" x="198.95" y="325.47" width="9.8" height="9.81"/>
      <g>
        <rect class="cls-3" x="365.62" y="178.5" width="9.8" height="9.8"/>
        <rect class="cls-4" x="365.62" y="168.69" width="9.8" height="9.81"/>
        <rect class="cls-3" x="365.62" y="158.89" width="9.8" height="9.8"/>
        <rect class="cls-5" x="355.81" y="178.5" width="9.81" height="9.8"/>
        <rect x="355.81" y="168.69" width="9.81" height="9.81"/>
        <rect x="355.81" y="158.89" width="9.81" height="9.8"/>
        <rect x="346.01" y="384.38" width="9.8" height="9.8"/>
        <rect x="346.01" y="178.5" width="9.8" height="9.8"/>
        <rect class="cls-6" x="346.01" y="168.69" width="9.8" height="9.81"/>
        <rect x="346.01" y="158.89" width="9.8" height="9.8"/>
        <rect x="336.2" y="394.18" width="9.81" height="9.81"/>
        <rect x="336.2" y="384.38" width="9.81" height="9.8"/>
        <rect x="336.2" y="374.58" width="9.81" height="9.8"/>
        <rect x="336.2" y="364.77" width="9.81" height="9.81"/>
        <rect class="cls-1" x="336.2" y="217.71" width="9.81" height="9.81"/>
        <rect x="336.2" y="178.5" width="9.81" height="9.8"/>
        <rect x="336.2" y="158.89" width="9.81" height="9.8"/>
        <rect x="326.4" y="403.99" width="9.8" height="9.8"/>
        <rect class="cls-1" x="326.4" y="394.18" width="9.8" height="9.81"/>
        <rect x="326.4" y="384.38" width="9.8" height="9.8"/>
        <rect x="326.4" y="374.58" width="9.8" height="9.8"/>
        <rect x="326.4" y="364.77" width="9.8" height="9.81"/>
        <rect x="326.4" y="354.97" width="9.8" height="9.8"/>
        <rect x="326.4" y="345.17" width="9.8" height="9.8"/>
        <rect x="326.4" y="335.36" width="9.8" height="9.81"/>
        <rect x="326.4" y="325.56" width="9.8" height="9.8"/>
        <rect x="326.4" y="315.75" width="9.8" height="9.81"/>
        <rect class="cls-1" x="326.4" y="305.95" width="9.8" height="9.8"/>
        <rect class="cls-1" x="326.4" y="217.71" width="9.8" height="9.81"/>
        <rect class="cls-7" x="326.4" y="207.91" width="9.8" height="9.8"/>
        <rect x="326.4" y="198.11" width="9.8" height="9.8"/>
        <rect x="326.4" y="188.3" width="9.8" height="9.81"/>
        <rect x="326.4" y="178.5" width="9.8" height="9.8"/>
        <rect x="326.4" y="158.89" width="9.8" height="9.8"/>
        <rect x="316.6" y="403.99" width="9.8" height="9.8"/>
        <rect class="cls-1" x="316.6" y="394.18" width="9.8" height="9.81"/>
        <rect x="316.6" y="384.38" width="9.8" height="9.8"/>
        <rect class="cls-6" x="316.6" y="374.58" width="9.8" height="9.8"/>
        <rect class="cls-6" x="316.6" y="364.77" width="9.8" height="9.81"/>
        <rect x="316.6" y="354.97" width="9.8" height="9.8"/>
        <rect x="316.6" y="345.17" width="9.8" height="9.8"/>
        <rect x="316.6" y="335.36" width="9.8" height="9.81"/>
        <rect x="316.6" y="325.56" width="9.8" height="9.8"/>
        <rect x="316.6" y="315.75" width="9.8" height="9.81"/>
        <rect x="316.6" y="305.95" width="9.8" height="9.8"/>
        <rect x="316.6" y="296.15" width="9.8" height="9.8"/>
        <rect x="316.6" y="286.34" width="9.8" height="9.81"/>
        <rect class="cls-1" x="316.6" y="217.71" width="9.8" height="9.81"/>
        <rect x="316.6" y="207.91" width="9.8" height="9.8"/>
        <rect class="cls-6" x="316.6" y="198.11" width="9.8" height="9.8"/>
        <rect x="316.6" y="188.3" width="9.8" height="9.81"/>
        <rect x="316.6" y="178.5" width="9.8" height="9.8"/>
        <rect x="316.6" y="158.89" width="9.8" height="9.8"/>
        <rect x="306.79" y="403.99" width="9.81" height="9.8"/>
        <rect x="306.79" y="394.18" width="9.81" height="9.81"/>
        <rect x="306.79" y="384.38" width="9.81" height="9.8"/>
        <rect class="cls-6" x="306.79" y="374.58" width="9.81" height="9.8"/>
        <rect class="cls-6" x="306.79" y="364.77" width="9.81" height="9.81"/>
        <rect class="cls-6" x="306.79" y="354.97" width="9.81" height="9.8"/>
        <rect class="cls-6" x="306.79" y="345.17" width="9.81" height="9.8"/>
        <rect class="cls-6" x="306.79" y="335.36" width="9.81" height="9.81"/>
        <rect x="306.79" y="296.15" width="9.81" height="9.8"/>
        <rect x="306.79" y="286.34" width="9.81" height="9.81"/>
        <rect x="306.79" y="276.54" width="9.81" height="9.8"/>
        <rect class="cls-1" x="306.79" y="217.71" width="9.81" height="9.81"/>
        <rect class="cls-7" x="306.79" y="207.91" width="9.81" height="9.8"/>
        <rect class="cls-6" x="306.79" y="198.11" width="9.81" height="9.8"/>
        <rect x="306.79" y="188.3" width="9.81" height="9.81"/>
        <rect x="306.79" y="178.5" width="9.81" height="9.8"/>
        <rect x="306.79" y="158.89" width="9.81" height="9.8"/>
        <rect x="296.99" y="394.18" width="9.8" height="9.81"/>
        <rect x="296.99" y="384.38" width="9.8" height="9.8"/>
        <rect class="cls-6" x="296.99" y="354.97" width="9.8" height="9.8"/>
        <rect x="296.99" y="276.54" width="9.8" height="9.8"/>
        <rect x="296.99" y="266.73" width="9.8" height="9.81"/>
        <rect class="cls-1" x="296.99" y="217.71" width="9.8" height="9.81"/>
        <rect x="296.99" y="207.91" width="9.8" height="9.8"/>
        <rect x="296.99" y="188.3" width="9.8" height="9.81"/>
        <rect x="296.99" y="178.5" width="9.8" height="9.8"/>
        <rect class="cls-1" x="296.99" y="168.69" width="9.8" height="9.81"/>
        <rect x="296.99" y="158.89" width="9.8" height="9.8"/>
        <rect class="cls-1" x="296.99" y="149.09" width="9.8" height="9.8"/>
        <rect class="cls-8" x="296.99" y="139.28" width="9.8" height="9.81"/>
        <rect class="cls-8" x="296.99" y="129.48" width="9.8" height="9.8"/>
        <rect class="cls-8" x="296.99" y="119.67" width="9.8" height="9.81"/>
        <rect class="cls-9" x="296.99" y="109.87" width="9.8" height="9.8"/>
        <rect x="287.18" y="384.38" width="9.81" height="9.8"/>
        <rect class="cls-6" x="287.18" y="305.95" width="9.81" height="9.8"/>
        <rect x="287.18" y="266.73" width="9.81" height="9.81"/>
        <rect x="287.18" y="256.93" width="9.81" height="9.8"/>
        <rect x="287.18" y="247.13" width="9.81" height="9.8"/>
        <rect x="287.18" y="237.32" width="9.81" height="9.81"/>
        <rect x="287.18" y="227.52" width="9.81" height="9.8"/>
        <rect x="287.18" y="217.71" width="9.81" height="9.81"/>
        <rect x="287.18" y="207.91" width="9.81" height="9.8"/>
        <rect x="287.18" y="188.3" width="9.81" height="9.81"/>
        <rect x="287.18" y="178.5" width="9.81" height="9.8"/>
        <rect x="287.18" y="168.69" width="9.81" height="9.81"/>
        <rect x="287.18" y="158.89" width="9.81" height="9.8"/>
        <rect x="287.18" y="149.09" width="9.81" height="9.8"/>
        <rect x="287.18" y="139.28" width="9.81" height="9.81"/>
        <rect x="287.18" y="129.48" width="9.81" height="9.8"/>
        <rect x="287.18" y="119.67" width="9.81" height="9.81"/>
        <rect x="287.18" y="109.87" width="9.81" height="9.8"/>
        <rect x="287.18" y="100.07" width="9.81" height="9.8"/>
        <rect x="277.38" y="384.38" width="9.8" height="9.8"/>
        <rect class="cls-9" x="277.38" y="364.77" width="9.8" height="9.81"/>
        <rect x="277.38" y="256.93" width="9.8" height="9.8"/>
        <rect x="277.38" y="247.13" width="9.8" height="9.8"/>
        <rect class="cls-1" x="277.38" y="237.32" width="9.8" height="9.81"/>
        <rect class="cls-1" x="277.38" y="227.52" width="9.8" height="9.8"/>
        <rect class="cls-1" x="277.38" y="217.71" width="9.8" height="9.81"/>
        <rect x="277.38" y="207.91" width="9.8" height="9.8"/>
        <rect x="277.38" y="188.3" width="9.8" height="9.81"/>
        <rect x="277.38" y="178.5" width="9.8" height="9.8"/>
        <rect x="277.38" y="168.69" width="9.8" height="9.81"/>
        <rect x="277.38" y="158.89" width="9.8" height="9.8"/>
        <rect x="277.38" y="149.09" width="9.8" height="9.8"/>
        <rect x="277.38" y="139.28" width="9.8" height="9.81"/>
        <rect x="277.38" y="129.48" width="9.8" height="9.8"/>
        <rect x="277.38" y="119.67" width="9.8" height="9.81"/>
        <rect x="277.38" y="109.87" width="9.8" height="9.8"/>
        <rect x="277.38" y="100.07" width="9.8" height="9.8"/>
        <rect x="277.38" y="90.26" width="9.8" height="9.81"/>
        <rect x="267.58" y="384.38" width="9.8" height="9.8"/>
        <rect class="cls-9" x="267.58" y="335.36" width="9.8" height="9.81"/>
        <rect x="267.58" y="247.13" width="9.8" height="9.8"/>
        <rect class="cls-1" x="267.58" y="237.32" width="9.8" height="9.81"/>
        <rect x="267.58" y="217.71" width="9.8" height="9.81"/>
        <rect x="267.58" y="207.91" width="9.8" height="9.8"/>
        <rect x="267.58" y="188.3" width="9.8" height="9.81"/>
        <rect class="cls-1" x="267.58" y="178.5" width="9.8" height="9.8"/>
        <rect class="cls-10" x="267.58" y="168.69" width="9.8" height="9.81"/>
        <rect class="cls-11" x="267.58" y="158.89" width="9.8" height="9.8"/>
        <rect class="cls-11" x="267.58" y="149.09" width="9.8" height="9.8"/>
        <rect class="cls-11" x="267.58" y="139.28" width="9.8" height="9.81"/>
        <rect x="267.58" y="129.48" width="9.8" height="9.8"/>
        <rect x="267.58" y="119.67" width="9.8" height="9.81"/>
        <rect x="267.58" y="109.87" width="9.8" height="9.8"/>
        <rect x="267.58" y="100.07" width="9.8" height="9.8"/>
        <rect x="267.58" y="90.26" width="9.8" height="9.81"/>
        <rect class="cls-9" x="267.58" y="80.46" width="9.8" height="9.8"/>
        <rect class="cls-3" x="267.58" y="70.66" width="9.8" height="9.8"/>
        <rect x="257.77" y="384.38" width="9.81" height="9.8"/>
        <rect class="cls-9" x="257.77" y="315.75" width="9.81" height="9.81"/>
        <rect x="257.77" y="247.13" width="9.81" height="9.8"/>
        <rect class="cls-1" x="257.77" y="237.32" width="9.81" height="9.81"/>
        <rect class="cls-1" x="257.77" y="227.52" width="9.81" height="9.8"/>
        <rect x="257.77" y="217.71" width="9.81" height="9.81"/>
        <rect class="cls-10" x="257.77" y="207.91" width="9.81" height="9.8"/>
        <rect x="257.77" y="188.3" width="9.81" height="9.81"/>
        <rect class="cls-11" x="257.77" y="178.5" width="9.81" height="9.8"/>
        <rect class="cls-11" x="257.77" y="168.69" width="9.81" height="9.81"/>
        <rect class="cls-11" x="257.77" y="158.89" width="9.81" height="9.8"/>
        <rect class="cls-12" x="257.77" y="149.09" width="9.81" height="9.8"/>
        <rect class="cls-1" x="257.77" y="139.28" width="9.81" height="9.81"/>
        <rect x="257.77" y="129.48" width="9.81" height="9.8"/>
        <rect x="257.77" y="119.67" width="9.81" height="9.81"/>
        <rect x="257.77" y="109.87" width="9.81" height="9.8"/>
        <rect x="257.77" y="100.07" width="9.81" height="9.8"/>
        <rect x="257.77" y="90.26" width="9.81" height="9.81"/>
        <rect x="257.77" y="80.46" width="9.81" height="9.8"/>
        <rect class="cls-9" x="257.77" y="70.66" width="9.81" height="9.8"/>
        <rect x="247.97" y="384.38" width="9.8" height="9.8"/>
        <rect x="247.97" y="374.58" width="9.8" height="9.8"/>
        <rect class="cls-9" x="247.97" y="354.97" width="9.8" height="9.8"/>
        <rect class="cls-3" x="247.97" y="345.17" width="9.8" height="9.8"/>
        <rect class="cls-3" x="247.97" y="335.36" width="9.8" height="9.81"/>
        <rect x="247.97" y="247.13" width="9.8" height="9.8"/>
        <rect class="cls-1" x="247.97" y="237.32" width="9.8" height="9.81"/>
        <rect class="cls-1" x="247.97" y="227.52" width="9.8" height="9.8"/>
        <rect x="247.97" y="217.71" width="9.8" height="9.81"/>
        <rect class="cls-10" x="247.97" y="207.91" width="9.8" height="9.8"/>
        <rect x="247.97" y="188.3" width="9.8" height="9.81"/>
        <rect class="cls-11" x="247.97" y="178.5" width="9.8" height="9.8"/>
        <rect class="cls-11" x="247.97" y="168.69" width="9.8" height="9.81"/>
        <rect class="cls-3" x="247.97" y="158.89" width="9.8" height="9.8"/>
        <rect class="cls-3" x="247.97" y="149.09" width="9.8" height="9.8"/>
        <rect class="cls-7" x="247.97" y="139.28" width="9.8" height="9.81"/>
        <rect x="247.97" y="129.48" width="9.8" height="9.8"/>
        <rect x="247.97" y="119.67" width="9.8" height="9.81"/>
        <rect x="247.97" y="109.87" width="9.8" height="9.8"/>
        <rect x="247.97" y="100.07" width="9.8" height="9.8"/>
        <rect x="247.97" y="90.26" width="9.8" height="9.81"/>
        <rect x="247.97" y="80.46" width="9.8" height="9.8"/>
        <rect x="247.97" y="70.66" width="9.8" height="9.8"/>
        <rect x="238.16" y="374.58" width="9.81" height="9.8"/>
        <rect class="cls-3" x="238.16" y="364.77" width="9.81" height="9.81"/>
        <rect class="cls-6" x="238.16" y="354.97" width="9.81" height="9.8"/>
        <rect class="cls-6" x="238.16" y="345.17" width="9.81" height="9.8"/>
        <rect class="cls-3" x="238.16" y="296.15" width="9.81" height="9.8"/>
        <rect class="cls-6" x="238.16" y="286.34" width="9.81" height="9.81"/>
        <rect x="238.16" y="247.13" width="9.81" height="9.8"/>
        <rect class="cls-1" x="238.16" y="227.52" width="9.81" height="9.8"/>
        <rect class="cls-13" x="238.16" y="217.71" width="9.81" height="9.81"/>
        <rect class="cls-14" x="238.16" y="207.91" width="9.81" height="9.8"/>
        <rect x="238.16" y="188.3" width="9.81" height="9.81"/>
        <rect x="238.16" y="178.5" width="9.81" height="9.8"/>
        <rect class="cls-12" x="238.16" y="158.89" width="9.81" height="9.8"/>
        <rect x="238.16" y="149.09" width="9.81" height="9.8"/>
        <rect x="238.16" y="139.28" width="9.81" height="9.81"/>
        <rect x="238.16" y="129.48" width="9.81" height="9.8"/>
        <rect x="238.16" y="119.67" width="9.81" height="9.81"/>
        <rect x="238.16" y="109.87" width="9.81" height="9.8"/>
        <rect x="238.16" y="100.07" width="9.81" height="9.8"/>
        <rect x="238.16" y="90.26" width="9.81" height="9.81"/>
        <rect x="238.16" y="80.46" width="9.81" height="9.8"/>
        <rect x="238.16" y="70.66" width="9.81" height="9.8"/>
        <rect x="228.36" y="374.58" width="9.8" height="9.8"/>
        <rect class="cls-3" x="228.36" y="364.77" width="9.8" height="9.81"/>
        <rect class="cls-6" x="228.36" y="354.97" width="9.8" height="9.8"/>
        <rect class="cls-6" x="228.36" y="345.17" width="9.8" height="9.8"/>
        <rect class="cls-3" x="228.36" y="296.15" width="9.8" height="9.8"/>
        <rect class="cls-6" x="228.36" y="286.34" width="9.8" height="9.81"/>
        <rect class="cls-6" x="228.36" y="276.54" width="9.8" height="9.8"/>
        <rect x="228.36" y="247.13" width="9.8" height="9.8"/>
        <rect class="cls-1" x="228.36" y="227.52" width="9.8" height="9.8"/>
        <rect x="228.36" y="178.5" width="9.8" height="9.8"/>
        <rect x="228.36" y="168.69" width="9.8" height="9.81"/>
        <rect x="228.36" y="158.89" width="9.8" height="9.8"/>
        <rect x="228.36" y="149.09" width="9.8" height="9.8"/>
        <rect x="228.36" y="139.28" width="9.8" height="9.81"/>
        <rect x="228.36" y="129.48" width="9.8" height="9.8"/>
        <rect x="228.36" y="119.67" width="9.8" height="9.81"/>
        <rect x="228.36" y="109.87" width="9.8" height="9.8"/>
        <rect x="228.36" y="100.07" width="9.8" height="9.8"/>
        <rect x="228.36" y="90.26" width="9.8" height="9.81"/>
        <rect x="228.36" y="80.46" width="9.8" height="9.8"/>
        <rect x="228.36" y="70.66" width="9.8" height="9.8"/>
        <rect x="218.56" y="384.38" width="9.8" height="9.8"/>
        <rect x="218.56" y="374.58" width="9.8" height="9.8"/>
        <rect class="cls-3" x="218.56" y="364.77" width="9.8" height="9.81"/>
        <rect class="cls-3" x="218.56" y="354.97" width="9.8" height="9.8"/>
        <rect class="cls-6" x="218.56" y="345.17" width="9.8" height="9.8"/>
        <rect class="cls-9" x="218.56" y="286.34" width="9.8" height="9.81"/>
        <rect x="218.56" y="247.13" width="9.8" height="9.8"/>
        <rect x="218.56" y="188.3" width="9.8" height="9.81"/>
        <rect x="218.56" y="178.5" width="9.8" height="9.8"/>
        <rect x="218.56" y="168.69" width="9.8" height="9.81"/>
        <rect x="218.56" y="158.89" width="9.8" height="9.8"/>
        <rect x="218.56" y="149.09" width="9.8" height="9.8"/>
        <rect x="218.56" y="139.28" width="9.8" height="9.81"/>
        <rect x="218.56" y="129.48" width="9.8" height="9.8"/>
        <rect x="218.56" y="119.67" width="9.8" height="9.81"/>
        <rect x="218.56" y="109.87" width="9.8" height="9.8"/>
        <rect x="218.56" y="100.07" width="9.8" height="9.8"/>
        <rect x="218.56" y="90.26" width="9.8" height="9.81"/>
        <rect x="218.56" y="80.46" width="9.8" height="9.8"/>
        <rect class="cls-3" x="218.56" y="70.66" width="9.8" height="9.8"/>
        <rect class="cls-9" x="208.75" y="394.18" width="9.81" height="9.81"/>
        <rect class="cls-15" x="208.75" y="384.38" width="9.81" height="9.8"/>
        <rect class="cls-9" x="208.75" y="374.58" width="9.81" height="9.8"/>
        <rect class="cls-3" x="208.75" y="364.77" width="9.81" height="9.81"/>
        <rect class="cls-3" x="208.75" y="345.17" width="9.81" height="9.8"/>
        <rect class="cls-6" x="208.75" y="315.75" width="9.81" height="9.81"/>
        <rect class="cls-6" x="208.75" y="305.95" width="9.81" height="9.8"/>
        <rect class="cls-3" x="208.75" y="296.15" width="9.81" height="9.8"/>
        <rect class="cls-3" x="208.75" y="286.34" width="9.81" height="9.81"/>
        <rect class="cls-3" x="208.75" y="276.54" width="9.81" height="9.8"/>
        <rect class="cls-9" x="208.75" y="266.73" width="9.81" height="9.81"/>
        <rect class="cls-3" x="208.75" y="256.93" width="9.81" height="9.8"/>
        <rect x="208.75" y="247.13" width="9.81" height="9.8"/>
        <rect class="cls-1" x="208.75" y="237.32" width="9.81" height="9.81"/>
        <rect class="cls-1" x="208.75" y="227.52" width="9.81" height="9.8"/>
        <rect x="208.75" y="217.71" width="9.81" height="9.81"/>
        <rect x="208.75" y="207.91" width="9.81" height="9.8"/>
        <rect x="208.75" y="198.11" width="9.81" height="9.8"/>
        <rect x="208.75" y="188.3" width="9.81" height="9.81"/>
        <rect x="208.75" y="178.5" width="9.81" height="9.8"/>
        <rect x="208.75" y="168.69" width="9.81" height="9.81"/>
        <rect x="208.75" y="158.89" width="9.81" height="9.8"/>
        <rect x="208.75" y="149.09" width="9.81" height="9.8"/>
        <rect x="208.75" y="139.28" width="9.81" height="9.81"/>
        <rect x="208.75" y="129.48" width="9.81" height="9.8"/>
        <rect x="208.75" y="119.67" width="9.81" height="9.81"/>
        <rect x="208.75" y="109.87" width="9.81" height="9.8"/>
        <rect x="208.75" y="100.07" width="9.81" height="9.8"/>
        <rect x="208.75" y="90.26" width="9.81" height="9.81"/>
        <rect class="cls-12" x="208.75" y="80.46" width="9.81" height="9.8"/>
        <rect class="cls-15" x="198.95" y="403.99" width="9.8" height="9.8"/>
        <rect class="cls-15" x="198.95" y="394.18" width="9.8" height="9.81"/>
        <rect x="198.95" y="384.38" width="9.8" height="9.8"/>
        <rect class="cls-6" x="198.95" y="374.58" width="9.8" height="9.8"/>
        <rect class="cls-6" x="198.95" y="364.77" width="9.8" height="9.81"/>
        <rect class="cls-3" x="198.95" y="345.17" width="9.8" height="9.8"/>
        <rect class="cls-6" x="198.95" y="315.75" width="9.8" height="9.81"/>
        <rect class="cls-6" x="198.95" y="305.95" width="9.8" height="9.8"/>
        <rect class="cls-9" x="198.95" y="296.15" width="9.8" height="9.8"/>
        <rect class="cls-9" x="198.95" y="286.34" width="9.8" height="9.81"/>
        <rect class="cls-9" x="198.95" y="276.54" width="9.8" height="9.8"/>
        <rect x="198.95" y="266.73" width="9.8" height="9.81"/>
        <rect x="198.95" y="256.93" width="9.8" height="9.8"/>
        <rect x="198.95" y="247.13" width="9.8" height="9.8"/>
        <rect x="198.95" y="237.32" width="9.8" height="9.81"/>
        <rect x="198.95" y="227.52" width="9.8" height="9.8"/>
        <rect x="198.95" y="217.71" width="9.8" height="9.81"/>
        <rect x="198.95" y="207.91" width="9.8" height="9.8"/>
        <rect x="198.95" y="198.11" width="9.8" height="9.8"/>
        <rect x="198.95" y="188.3" width="9.8" height="9.81"/>
        <rect x="198.95" y="178.5" width="9.8" height="9.8"/>
        <rect x="198.95" y="168.69" width="9.8" height="9.81"/>
        <rect x="198.95" y="158.89" width="9.8" height="9.8"/>
        <rect x="198.95" y="149.09" width="9.8" height="9.8"/>
        <rect x="198.95" y="139.28" width="9.8" height="9.81"/>
        <rect x="198.95" y="129.48" width="9.8" height="9.8"/>
        <rect x="198.95" y="119.67" width="9.8" height="9.81"/>
        <rect x="198.95" y="109.87" width="9.8" height="9.8"/>
        <rect x="198.95" y="100.07" width="9.8" height="9.8"/>
        <rect class="cls-16" x="198.95" y="90.26" width="9.8" height="9.81"/>
        <rect class="cls-12" x="198.95" y="80.46" width="9.8" height="9.8"/>
        <rect class="cls-15" x="189.14" y="403.99" width="9.81" height="9.8"/>
        <rect class="cls-9" x="189.14" y="394.18" width="9.81" height="9.81"/>
        <rect x="189.14" y="384.38" width="9.81" height="9.8"/>
        <rect class="cls-3" x="189.14" y="374.58" width="9.81" height="9.8"/>
        <rect class="cls-3" x="189.14" y="364.77" width="9.81" height="9.81"/>
        <rect class="cls-3" x="189.14" y="354.97" width="9.81" height="9.8"/>
        <rect class="cls-9" x="189.14" y="335.36" width="9.81" height="9.81"/>
        <rect x="189.14" y="315.75" width="9.81" height="9.81"/>
        <rect x="189.14" y="305.95" width="9.81" height="9.8"/>
        <rect x="189.14" y="296.15" width="9.81" height="9.8"/>
        <rect x="189.14" y="286.34" width="9.81" height="9.81"/>
        <rect x="189.14" y="276.54" width="9.81" height="9.8"/>
        <rect class="cls-17" x="189.14" y="247.13" width="9.81" height="9.8"/>
        <rect x="189.14" y="237.32" width="9.81" height="9.81"/>
        <rect x="189.14" y="227.52" width="9.81" height="9.8"/>
        <rect x="189.14" y="217.71" width="9.81" height="9.81"/>
        <rect x="189.14" y="207.91" width="9.81" height="9.8"/>
        <rect x="189.14" y="198.11" width="9.81" height="9.8"/>
        <rect x="189.14" y="188.3" width="9.81" height="9.81"/>
        <rect x="189.14" y="178.5" width="9.81" height="9.8"/>
        <rect x="189.14" y="168.69" width="9.81" height="9.81"/>
        <rect x="189.14" y="158.89" width="9.81" height="9.8"/>
        <rect x="189.14" y="149.09" width="9.81" height="9.8"/>
        <rect x="189.14" y="139.28" width="9.81" height="9.81"/>
        <rect x="189.14" y="129.48" width="9.81" height="9.8"/>
        <rect x="189.14" y="119.67" width="9.81" height="9.81"/>
        <rect x="189.14" y="109.87" width="9.81" height="9.8"/>
        <rect class="cls-16" x="189.14" y="100.07" width="9.81" height="9.8"/>
        <rect class="cls-18" x="189.14" y="90.26" width="9.81" height="9.81"/>
        <rect x="179.34" y="394.18" width="9.8" height="9.81"/>
        <rect x="179.34" y="384.38" width="9.8" height="9.8"/>
        <rect x="179.34" y="374.58" width="9.8" height="9.8"/>
        <rect class="cls-3" x="179.34" y="354.97" width="9.8" height="9.8"/>
        <rect class="cls-9" x="179.34" y="345.17" width="9.8" height="9.8"/>
        <rect class="cls-9" x="179.34" y="335.36" width="9.8" height="9.81"/>
        <rect x="179.34" y="325.56" width="9.8" height="9.8"/>
        <rect x="179.34" y="315.75" width="9.8" height="9.81"/>
        <rect class="cls-17" x="179.34" y="227.52" width="9.8" height="9.8"/>
        <rect x="179.34" y="217.71" width="9.8" height="9.81"/>
        <rect x="179.34" y="207.91" width="9.8" height="9.8"/>
        <rect x="179.34" y="198.11" width="9.8" height="9.8"/>
        <rect x="179.34" y="188.3" width="9.8" height="9.81"/>
        <rect x="179.34" y="178.5" width="9.8" height="9.8"/>
        <rect x="179.34" y="168.69" width="9.8" height="9.81"/>
        <rect x="179.34" y="158.89" width="9.8" height="9.8"/>
        <rect x="179.34" y="149.09" width="9.8" height="9.8"/>
        <rect x="179.34" y="139.28" width="9.8" height="9.81"/>
        <rect x="179.34" y="129.48" width="9.8" height="9.8"/>
        <rect class="cls-8" x="179.34" y="119.67" width="9.8" height="9.81"/>
        <rect class="cls-19" x="179.34" y="109.87" width="9.8" height="9.8"/>
        <rect x="169.54" y="374.58" width="9.8" height="9.8"/>
        <rect class="cls-9" x="169.54" y="364.77" width="9.8" height="9.81"/>
        <rect class="cls-9" x="169.54" y="345.17" width="9.8" height="9.8"/>
        <rect x="169.54" y="335.36" width="9.8" height="9.81"/>
        <rect x="159.73" y="374.58" width="9.81" height="9.8"/>
        <rect class="cls-9" x="159.73" y="364.77" width="9.81" height="9.81"/>
        <rect class="cls-9" x="159.73" y="354.97" width="9.81" height="9.8"/>
        <rect x="159.73" y="345.17" width="9.81" height="9.8"/>
        <rect x="149.93" y="374.58" width="9.8" height="9.8"/>
        <rect x="149.93" y="364.77" width="9.8" height="9.81"/>
        <rect x="149.93" y="354.97" width="9.8" height="9.8"/>
      </g>
    </g>
  </g>
</svg>
